<?xml version="1.0" encoding="utf-8"?>
<!-- Generator: Adobe Illustrator 23.0.3, SVG Export Plug-In . SVG Version: 6.00 Build 0)  -->
<svg version="1.1" id="Layer_1" xmlns="http://www.w3.org/2000/svg" xmlns:xlink="http://www.w3.org/1999/xlink" x="0px" y="0px"
	 viewBox="0 0 1024 1024" style="enable-background:new 0 0 1024 1024;" xml:space="preserve">
<style type="text/css">
	.st0{fill:#FFFFFF;}
</style>
<g>
	<path class="st0" d="M205,653.01c0.04,0,0.08,0,0.12,0c0,10.8-0.21,21.6,0.08,32.39c0.17,6.18,7.48,15.89,11.36,15.17
		c7.62-1.4,6.29-8.3,7.42-13.59c0.11-0.52,0.12-1.07,0.16-1.61c1.35-22.06,2.96-44.11,3.99-66.18c1.21-25.82,2.35-51.65,2.7-77.49
		c0.26-19.66,3.09-37.84,17.09-53.19c9.24-10.13,14.48-22.93,16.46-36.47c3.55-24.24,6.75-48.54,9.21-72.91
		c2.32-22.9,5.74-45.23,15.46-66.52c9.79-21.43,26.44-30.92,48.86-30.36c27.67,0.7,55.32,2.54,82.95,4.28
		c23.09,1.45,46.13,4.35,69.23,5.03c32.64,0.96,64-7.79,95.56-14.8c16.77-3.73,33.74-8.25,50.74-8.85
		c34.66-1.22,62.21,13.27,77.72,45.14c8.57,17.61,13.23,37.08,21.11,55.07c11.93,27.25,18.17,55.64,16.07,85.01
		c-1.45,20.26,6.23,33.83,20.35,47.07c15.22,14.27,25.95,31.85,23.48,54.49c-0.64,5.87-0.58,11.81-0.86,17.72
		c-1.4,30.43-2.85,60.85-4.17,91.28c-0.33,7.54-0.42,15.1-0.21,22.64c0.05,1.77,1.77,3.49,2.72,5.23c1.61-1.22,3.54-2.19,4.74-3.74
		c1.28-1.66,2.25-3.77,2.71-5.83c4.77-21.24,10.85-42.32,13.65-63.83c2.63-20.1,7.42-38.6,20.69-54.19
		c6.96-8.17,10.62-17.42,10.65-28.11c0.01-6.21,0.44-12.51-0.47-18.6c-0.97-6.49,0.72-10.44,7.21-11.94c6.51-1.51,9-5.59,7.43-11.97
		c-1.81-7.33,0.97-11.43,7.94-14.16c7.08-2.78,9.32-8.57,6.81-15.92c-1.57-4.59-3.68-9.07-4.63-13.79
		c-0.76-3.76-1.22-8.24,0.1-11.65c5.75-14.87,8.54-30.01,7.05-45.94c-0.4-4.28-1.06-8.98,0.23-12.88
		c3.93-11.87-1.39-21.22-7.57-30.08c-5.26-7.54-7.65-15.15-5.66-24.2c2.07-9.42-1.41-16.68-8.8-22.68
		c-5.65-4.58-11.28-9.38-15.94-14.92c-2.67-3.17-4.76-8.02-4.7-12.07c0.19-13.01,0.42-15.46-11.73-19.75
		c-18.47-6.52-37.67-10.94-56.48-16.5c-2.33-0.69-5.86-2.74-6.04-4.47c-2.11-19.5-11.03-36.1-22.32-51.35
		c-11.51-15.55-23.69-30.7-36.6-45.12c-17.87-19.97-38.04-37.52-60.95-51.63c-37.69-23.21-78.26-39.92-120.55-52.6
		c-21.87-6.56-43.52-6.52-64.91,2.32c-7.48,3.09-15.01,6.39-22.83,8.24c-10.61,2.52-21.49,4.91-32.33,5.29
		c-27.37,0.97-54.8-1.15-81.87,5.84c-38.37,9.92-71.58,28.74-98.98,56.98c-36.4,37.53-56.68,83.55-66.92,134.33
		c-4.99,24.72-8.46,49.54-2.28,74.54c5.43,21.99,11.61,43.79,16.85,65.82c1.23,5.18,0.42,11.01-0.23,16.45
		c-1,8.44-4.7,17.08-3.64,25.15c2.96,22.35,7.4,44.53,12.02,66.61c2.85,13.64,8.29,26.35,13.99,39.26
		c8.22,18.65,13.4,39.24,16.18,59.51C207.08,613.34,205,633.32,205,653.01z"/>
	<path class="st0" d="M363.54,806.27c-0.73,0.21-1.78,0.18-2.18,0.68c-8.43,10.42-17.05,20.71-25,31.5
		c-2.53,3.44-3.4,8.18,2.38,10.72c22.53,9.93,45.54,10.56,69.24,4.66c20.82-5.18,41.78-9.89,62.85-13.97
		c9.44-1.83,19.34-2.71,28.92-2.12c21.2,1.32,42.38,3.4,63.46,6c19.49,2.4,39.32,4.15,58.1,9.41c14.32,4.01,27.14,4.73,40.63-0.82
		c7.1-2.92,10.08-8.03,10.12-15.69c0.06-9.8-5.9-16.19-11.52-23c-2.82-3.42-3.8-9.98-10.6-4.83c-0.65,0.49-3.73-0.63-4.03-1.54
		c-2.33-7.15-9.46-8.71-14.27-12.93c-3.41-2.99-5.74-7.3-9.33-9.98c-2.65-1.98-7.81-4.21-9.67-2.99c-5.36,3.51-7.22,0.85-9.31-3.13
		c-9.12-17.32-21.17-31.6-39.67-39.63c-12.57-5.46-24.29-7.17-36.81,1.18c-13.74,9.17-28.09,13.08-43.71,1.81
		c-12.99-9.37-30.29-7.57-37.93,3.79c-6.39,9.5-14.4,16.67-23.61,22.75c-2.96,1.95-7.28,3.35-10.66,2.85
		c-6.94-1.02-11.29,1.18-14.75,7.05c-5.58,9.47-11.51,18.73-17.39,28.02C373.41,814.57,368.16,814.65,363.54,806.27z"/>
	<path class="st0" d="M632.83,939.33c-0.58-0.62-1.16-1.25-1.74-1.87c-2.15,1.47-4.34,2.9-6.45,4.43
		c-10.9,7.93-21.29,16.72-32.81,23.61c-10.95,6.55-22.63,12.76-34.82,16.05c-9.21,2.48-19.73-0.12-29.66-0.05
		c-12.01,0.09-24.12-0.25-36.01,1.13c-33.62,3.89-54.05,4.95-76.71-28.56c-1.15-1.69-3.04-2.88-5.11-4.8
		c-0.47,1.98-0.83,2.56-0.67,2.91c12.65,26.94,30.98,44.65,65.55,42.66c18.24-1.05,36.5-1.82,54.76-2.52
		c11.23-0.43,22.73,0.93,33.67-1.02c18.18-3.24,31.55-15.83,44.94-27.5C616.56,956.15,624.51,947.52,632.83,939.33z"/>
	<path d="M205,653.01c0-19.69,2.08-39.67-0.57-59c-2.78-20.27-7.96-40.87-16.18-59.51c-5.69-12.91-11.13-25.62-13.99-39.26
		c-4.62-22.08-9.06-44.26-12.02-66.61c-1.07-8.07,2.64-16.71,3.64-25.15c0.64-5.44,1.46-11.26,0.23-16.45
		c-5.23-22.03-11.41-43.84-16.85-65.82c-6.18-25-2.7-49.83,2.28-74.54c10.25-50.79,30.52-96.8,66.92-134.33
		c27.39-28.24,60.61-47.07,98.98-56.98c27.07-7,54.5-4.88,81.87-5.84c10.84-0.38,21.71-2.78,32.33-5.29
		c7.82-1.86,15.35-5.15,22.83-8.24c21.39-8.84,43.04-8.87,64.91-2.32c42.29,12.68,82.86,29.39,120.55,52.6
		c22.91,14.11,43.08,31.66,60.95,51.63c12.9,14.42,25.08,29.56,36.6,45.12c11.29,15.25,20.2,31.85,22.32,51.35
		c0.19,1.72,3.71,3.78,6.04,4.47c18.82,5.56,38.02,9.99,56.48,16.5c12.15,4.29,11.92,6.74,11.73,19.75
		c-0.06,4.06,2.04,8.9,4.7,12.07c4.66,5.53,10.29,10.34,15.94,14.92c7.4,6,10.88,13.26,8.8,22.68c-1.99,9.05,0.4,16.65,5.66,24.2
		c6.18,8.86,11.5,18.21,7.57,30.08c-1.29,3.9-0.63,8.61-0.23,12.88c1.49,15.94-1.3,31.08-7.05,45.94c-1.32,3.42-0.85,7.89-0.1,11.65
		c0.95,4.72,3.06,9.19,4.63,13.79c2.51,7.34,0.28,13.14-6.81,15.92c-6.97,2.73-9.75,6.83-7.94,14.16
		c1.57,6.37-0.92,10.46-7.43,11.97c-6.49,1.5-8.18,5.44-7.21,11.94c0.91,6.09,0.48,12.39,0.47,18.6
		c-0.02,10.68-3.69,19.93-10.65,28.11c-13.27,15.59-18.06,34.08-20.69,54.19c-2.81,21.51-8.89,42.59-13.65,63.83
		c-0.46,2.06-1.43,4.17-2.71,5.83c-1.2,1.54-3.13,2.51-4.74,3.74c-0.95-1.74-2.67-3.47-2.72-5.23c-0.21-7.54-0.12-15.1,0.21-22.64
		c1.32-30.43,2.77-60.85,4.17-91.28c0.27-5.91,0.22-11.85,0.86-17.72c2.47-22.64-8.26-40.21-23.48-54.49
		c-14.12-13.24-21.8-26.81-20.35-47.07c2.1-29.37-4.13-57.77-16.07-85.01c-7.88-17.99-12.54-37.46-21.11-55.07
		c-15.51-31.86-43.06-46.36-77.72-45.14c-17,0.6-33.97,5.12-50.74,8.85c-31.56,7.01-62.92,15.76-95.56,14.8
		c-23.11-0.68-46.14-3.58-69.23-5.03c-27.63-1.74-55.28-3.58-82.95-4.28c-22.42-0.57-39.08,8.93-48.86,30.36
		c-9.72,21.28-13.15,43.62-15.46,66.52c-2.46,24.37-5.67,48.67-9.21,72.91c-1.98,13.54-7.22,26.34-16.46,36.47
		c-14,15.36-16.83,33.53-17.09,53.19c-0.34,25.84-1.49,51.67-2.7,77.49c-1.03,22.07-2.64,44.12-3.99,66.18
		c-0.03,0.54-0.04,1.09-0.16,1.61c-1.13,5.29,0.2,12.19-7.42,13.59c-3.88,0.72-11.2-8.99-11.36-15.17
		c-0.29-10.79-0.08-21.59-0.08-32.39C205.07,653.01,205.04,653.01,205,653.01z"/>
	<path d="M363.54,806.27c4.62,8.38,9.87,8.31,15.26-0.21c5.88-9.29,11.81-18.55,17.39-28.02c3.46-5.87,7.81-8.06,14.75-7.05
		c3.38,0.5,7.7-0.9,10.66-2.85c9.22-6.07,17.22-13.24,23.61-22.75c7.64-11.36,24.94-13.16,37.93-3.79
		c15.62,11.27,29.97,7.36,43.71-1.81c12.51-8.35,24.23-6.64,36.81-1.18c18.5,8.03,30.55,22.32,39.67,39.63
		c2.09,3.98,3.96,6.63,9.31,3.13c1.86-1.22,7.01,1.01,9.67,2.99c3.59,2.68,5.91,6.99,9.33,9.98c4.81,4.22,11.94,5.78,14.27,12.93
		c0.3,0.91,3.38,2.03,4.03,1.54c6.8-5.15,7.78,1.41,10.6,4.83c5.62,6.81,11.58,13.19,11.52,23c-0.04,7.66-3.02,12.77-10.12,15.69
		c-13.48,5.55-26.31,4.82-40.63,0.82c-18.78-5.26-38.61-7.01-58.1-9.41c-21.09-2.59-42.26-4.68-63.46-6
		c-9.57-0.59-19.48,0.29-28.92,2.12c-21.06,4.08-42.03,8.79-62.85,13.97c-23.7,5.9-46.71,5.26-69.24-4.66
		c-5.78-2.55-4.92-7.29-2.38-10.72c7.95-10.78,16.57-21.07,25-31.5C361.76,806.45,362.81,806.48,363.54,806.27z"/>
	<path d="M632.83,939.33c-8.33,8.19-16.27,16.82-25.06,24.47c-13.4,11.67-26.77,24.26-44.94,27.5c-10.93,1.95-22.43,0.59-33.67,1.02
		c-18.26,0.7-36.52,1.47-54.76,2.52c-34.57,1.99-52.9-15.72-65.55-42.66c-0.16-0.34,0.19-0.93,0.67-2.91
		c2.08,1.92,3.97,3.11,5.11,4.8c22.66,33.51,43.09,32.44,76.71,28.56c11.89-1.37,24-1.04,36.01-1.13
		c9.93-0.08,20.45,2.53,29.66,0.05c12.19-3.28,23.88-9.5,34.82-16.05c11.52-6.89,21.91-15.68,32.81-23.61
		c2.11-1.53,4.3-2.96,6.45-4.43C631.67,938.08,632.25,938.71,632.83,939.33z"/>
</g>
</svg>
